<svg xmlns="http://www.w3.org/2000/svg" viewBox="0 0 334.88 377.82"><defs><style>.cls-1{fill-rule:evenodd;}</style></defs><g id="Layer_2" data-name="Layer 2"><g id="Layer_1-2" data-name="Layer 1"><path class="cls-1" d="M20.06,369.57q0,3.65-2.59,5.11t-7.53,1.46a20.93,20.93,0,0,1-4-.36,9.1,9.1,0,0,1-3.14-1.2,5.7,5.7,0,0,1-2-2.21A7.29,7.29,0,0,1,0,368.94v-5.61H7.54v6.33q0,2.16,2.4,2.16a2.44,2.44,0,0,0,1.8-.6,2.83,2.83,0,0,0,.6-2v-3a5.64,5.64,0,0,0-.41-2,4.5,4.5,0,0,0-1.42-1.87L3.7,356.75a9.75,9.75,0,0,1-2.6-2.86,7.43,7.43,0,0,1-.76-3.57V347q0-4,2.49-5.52c1.67-1,4.16-1.54,7.49-1.54a20.82,20.82,0,0,1,4,.36,9.08,9.08,0,0,1,3.15,1.2,5.77,5.77,0,0,1,2,2.21,7.32,7.32,0,0,1,.72,3.43v4.47H12.72v-5.19q0-2.16-2.4-2.16a2.1,2.1,0,0,0-2.4,2.35v2.36A8.94,8.94,0,0,0,8,350.17a3.37,3.37,0,0,0,.27,1,2.75,2.75,0,0,0,.52.8,10.49,10.49,0,0,0,.87.79l7.25,5.81a8.28,8.28,0,0,1,2.37,2.88,8.89,8.89,0,0,1,.79,3.93v4.23Zm12.67,5.52V345.28H26.15v-4.37H47.41v4.37H40.89v29.81Zm33.68,0V361.55h-4.8v13.54H53.4V346.57a4.93,4.93,0,0,1,.82-2.78,6.86,6.86,0,0,1,2.23-2.11,11.12,11.12,0,0,1,3.36-1.32,18.08,18.08,0,0,1,4.2-.46,17.54,17.54,0,0,1,4.13.46,11.14,11.14,0,0,1,3.33,1.32,6.89,6.89,0,0,1,2.24,2.11,5,5,0,0,1,.81,2.78v28.52Zm0-28.71q0-2.16-2.4-2.16t-2.4,2.16v10.71h4.8V346.38Zm20.77,28.71V345.28H80.61v-4.37h21.26v4.37H95.34v29.81ZM121,340.91h8v28a7,7,0,0,1-.77,3.41,5.8,5.8,0,0,1-2.13,2.21,10.17,10.17,0,0,1-3.24,1.17,22,22,0,0,1-4.13.36,21.66,21.66,0,0,1-4.08-.36,9.91,9.91,0,0,1-3.27-1.2,6.21,6.21,0,0,1-2.18-2.2,6.79,6.79,0,0,1-.79-3.44v-28h8.11v28.7a2.35,2.35,0,0,0,.5,1.64,2.32,2.32,0,0,0,1.71.52q2.25,0,2.25-2.16v-28.7ZM157,369.57q0,3.65-2.59,5.11t-7.53,1.46a20.93,20.93,0,0,1-4-.36,9.1,9.1,0,0,1-3.14-1.2,5.7,5.7,0,0,1-2-2.21,7.29,7.29,0,0,1-.72-3.43v-5.61h7.54v6.33q0,2.16,2.4,2.16a2.44,2.44,0,0,0,1.8-.6,2.83,2.83,0,0,0,.6-2v-3a5.64,5.64,0,0,0-.41-2,4.41,4.41,0,0,0-1.42-1.87l-6.81-5.57a9.57,9.57,0,0,1-2.59-2.86,7.32,7.32,0,0,1-.77-3.57V347q0-4,2.49-5.52c1.67-1,4.16-1.54,7.49-1.54a20.82,20.82,0,0,1,4,.36,9.08,9.08,0,0,1,3.15,1.2,5.77,5.77,0,0,1,2,2.21,7.32,7.32,0,0,1,.72,3.43v4.47h-7.54v-5.19q0-2.16-2.4-2.16a2.1,2.1,0,0,0-2.4,2.35v2.36a10.82,10.82,0,0,0,.07,1.24,3.37,3.37,0,0,0,.27,1,2.79,2.79,0,0,0,.53.8,8.84,8.84,0,0,0,.86.79l7.25,5.81a8.17,8.17,0,0,1,2.37,2.88,8.89,8.89,0,0,1,.79,3.93v4.23Zm18.76-10.28v-3.21l23.71-10.18v4.18l-18.52,7.53,18.52,7.64v4.08l-23.71-10Zm31.67,15.8v-8.4a10.4,10.4,0,0,1,.82-4.23,8.17,8.17,0,0,1,2.64-3.26l7.53-5.91a5,5,0,0,0,1.44-1.53,3.47,3.47,0,0,0,.39-1.68v-3.7q0-2.16-2.4-2.16t-2.4,2.16v5.28h-7.54V347.1a7.32,7.32,0,0,1,.72-3.43,5.77,5.77,0,0,1,2-2.21,9.08,9.08,0,0,1,3.15-1.2,20.82,20.82,0,0,1,4-.36,23.14,23.14,0,0,1,4.2.36,10.49,10.49,0,0,1,3.36,1.18,6,6,0,0,1,2.23,2.21,6.63,6.63,0,0,1,.82,3.4v3.32a7.28,7.28,0,0,1-.8,3.55,9.56,9.56,0,0,1-2.56,2.83l-7.3,5.76c-.51.42-.94.8-1.3,1.15a4.67,4.67,0,0,0-.84,1.13,5,5,0,0,0-.45,1.27,7.4,7.4,0,0,0-.15,1.59v2.49h12.87v4.95Zm28.89-28a6.63,6.63,0,0,1,.81-3.4,6,6,0,0,1,2.24-2.21,10.32,10.32,0,0,1,3.36-1.18,23,23,0,0,1,4.2-.36,22.33,22.33,0,0,1,4.12.36,10.15,10.15,0,0,1,3.34,1.2,6.3,6.3,0,0,1,2.23,2.21,6.55,6.55,0,0,1,.82,3.43v21.84a6.53,6.53,0,0,1-.82,3.43,6.22,6.22,0,0,1-2.23,2.21,10.15,10.15,0,0,1-3.34,1.2,22.33,22.33,0,0,1-4.12.36,23,23,0,0,1-4.2-.36,10.55,10.55,0,0,1-3.36-1.17,6.09,6.09,0,0,1-2.24-2.21,6.7,6.7,0,0,1-.81-3.41V347.05Zm13-.67q0-2.16-2.4-2.16t-2.4,2.16v23.28q0,2.16,2.4,2.16t2.4-2.16V346.38Zm15.78.67a6.63,6.63,0,0,1,.81-3.4,6,6,0,0,1,2.24-2.21,10.34,10.34,0,0,1,3.35-1.18,23.18,23.18,0,0,1,4.21-.36,22.33,22.33,0,0,1,4.12.36,10.15,10.15,0,0,1,3.34,1.2,6.3,6.3,0,0,1,2.23,2.21,6.65,6.65,0,0,1,.82,3.43v21.84a6.62,6.62,0,0,1-.82,3.43,6.22,6.22,0,0,1-2.23,2.21,10.15,10.15,0,0,1-3.34,1.2,22.33,22.33,0,0,1-4.12.36,23.18,23.18,0,0,1-4.21-.36,10.58,10.58,0,0,1-3.35-1.17,6.09,6.09,0,0,1-2.24-2.21,6.7,6.7,0,0,1-.81-3.41V347.05Zm13-.67c0-1.44-.8-2.16-2.39-2.16s-2.41.72-2.41,2.16v23.28c0,1.44.8,2.16,2.41,2.16s2.39-.72,2.39-2.16V346.38Zm13.87,31.44,9.31-37.92h3.31l-9.41,37.92Zm19.23-8.49v-4.08l18.53-7.64-18.53-7.53V345.9l23.72,10.18v3.21l-23.72,10Z"/><path d="M109.47,89.39a7.18,7.18,0,0,1-2.83-.59L80,77.21a7.15,7.15,0,0,1-3.69-9.38l24.38-56.07a7.14,7.14,0,0,1,9.38-3.69l26.66,11.59A7.15,7.15,0,0,1,140.4,29L116,85.11a7.08,7.08,0,0,1-3.93,3.78A7.21,7.21,0,0,1,109.47,89.39ZM79.75,65.57l-1.38,3.16a4.88,4.88,0,0,0,2.52,6.4l26.66,11.59a4.87,4.87,0,0,0,6.39-2.52L115.32,81Zm.9-2.08L116.22,79l20.66-47.52L101.31,16Zm21.57-49.6,35.57,15.47.53-1.23a4.87,4.87,0,0,0-2.52-6.39L109.14,10.15a4.86,4.86,0,0,0-6.39,2.51Zm-6.48,67a3.47,3.47,0,0,1-1.39-.29,3.42,3.42,0,0,1-1.86-1.93A3.46,3.46,0,0,1,92.54,76a3.42,3.42,0,0,1,1.93-1.86,3.46,3.46,0,0,1,2.68,0,3.5,3.5,0,0,1-1.41,6.71Zm0-4.74a1.17,1.17,0,0,0-.45.09,1.23,1.23,0,0,0,0,2.28,1.22,1.22,0,0,0,1.62-.64,1.22,1.22,0,0,0-.64-1.62h0A1.21,1.21,0,0,0,95.75,76.16Zm29.73-54L115.92,18l.9-2.08L126.38,20Z"/><path class="cls-1" d="M168.65,144.05l3.79,0,2.4,9h-8.62l2.43-9Zm44.4-11.4a51.44,51.44,0,0,1,0,6.45c-.24,2.27-2.3,1.81-4.47,1.81l-76.28-.07c-2.21,0-4.16.42-4.32-2a55,55,0,0,1,0-6.29l85,.07Zm-85-3.22c-.19-7.46,0-15.17,0-22.66,0-3.19-.32-20.93.23-22.48,1.19-3.34,4.83-2.66,8.65-2.66l67.79.06c3.77,0,7.25-.54,8.25,2.93.43,1.49.16,42.1.17,44.88L128,129.43Zm76.5,14.65c2.28,0,7.15.36,8.89-.5,2.57-1.28,2.85-3.13,2.85-6.69V89.55c0-3.37.36-5.63-1.35-8a7.45,7.45,0,0,0-6.46-3l-76-.07a7.25,7.25,0,0,0-6.43,3.16c-1.6,2.32-1.22,5-1.22,8.16v47.34c0,2.49,0,5.12,3,6.44,2,.89,15.25.47,18.54.47,6.31,0,12.63.05,18.95,0a34.79,34.79,0,0,1-1.2,4.75c-.11.44-.87,4.1-1.4,4.23l-5.34,0,0,3.13h26.39v-3.13l-5.59-.05c-.44-1.91-2.24-7.62-2.33-8.95l28.7,0Z"/><path d="M99.53,131,53,127.24l3.1-38.33,46.55,3.77Zm-44.11-5.84,42,3.39L99.28,106l-42-3.4Zm2-24.86,42,3.4.73-9-42-3.39Zm26.39,23.13-1.54-1.66,5.79-5.38-6.33-7,1.68-1.52,7.83,8.65Zm-9.36-.68-2.08-.92,6.1-13.8,2.08.92ZM69,122.24l-6.22-8L71.9,107l1.42,1.77L66,114.61l4.85,6.24Z"/><path d="M105.18,204a18.67,18.67,0,0,1-4-.45,18.2,18.2,0,1,1,22.23-17L142.76,191a3.29,3.29,0,0,1,2.47,3.94,3.3,3.3,0,0,1-3.94,2.48L121.91,193A18.23,18.23,0,0,1,105.18,204Zm0-34.13a15.93,15.93,0,1,0,15,21.41l.34-.94,21.31,4.86a1,1,0,0,0,1.22-.77,1.05,1.05,0,0,0-.13-.77,1,1,0,0,0-.64-.45l-21.31-4.86.1-1a15.94,15.94,0,0,0-12.31-17.08A15.4,15.4,0,0,0,105.19,169.89Zm.06,30.67a15.33,15.33,0,0,1-3.34-.37,14.73,14.73,0,1,1,18-13.37l0,.17-1,4.32A14.63,14.63,0,0,1,105.25,200.56Zm-.09-27.2a12.46,12.46,0,1,0,11.56,17.19l.91-4A12.38,12.38,0,0,0,108,173.68,12.15,12.15,0,0,0,105.16,173.36Z"/><path d="M126.79,216.8a7.37,7.37,0,1,1,7.37-7.36A7.37,7.37,0,0,1,126.79,216.8Zm0-12.46a5.1,5.1,0,1,0,5.1,5.1A5.1,5.1,0,0,0,126.79,204.34ZM153.65,215a7.37,7.37,0,1,1,7.37-7.37A7.38,7.38,0,0,1,153.65,215Zm0-12.47a5.1,5.1,0,1,0,5.1,5.1A5.11,5.11,0,0,0,153.65,202.51Z"/><path d="M219.75,213.54a6.53,6.53,0,0,1-.87,0c-4.37-.45-8-2.91-11-7.51h0a39.88,39.88,0,0,1-4.28-9.28l-.09-.26a36.14,36.14,0,0,1-1.18-4.78,38.7,38.7,0,0,1-.35-13.38c2-11.92,9.2-11.39,14-11a16,16,0,0,0,3.38,0c5.09-.86,5.94-4.68,6.92-9.11,1.06-4.8,2.26-10.23,9.53-11.34,5.87-.91,14.74,2.9,19.32,7,5.2,4.7,9.9,9.56,10.2,17.44a14.12,14.12,0,0,1-.29,4.09c-1.48,6.75-7.4,6.14-13.11,5.55-3.24-.33-6.59-.68-9.51.11-5.73,1.54-11.12,7-13.12,13.26a46.62,46.62,0,0,0-1.26,6.07C227,206.26,225.84,213.54,219.75,213.54Zm-10-8.81c2.66,4,5.72,6.13,9.37,6.51,4.4.46,5.49-4.16,6.66-11.25a47.39,47.39,0,0,1,1.33-6.39c2.22-7,8.26-13,14.69-14.76,3.32-.9,7-.51,10.33-.18,6.14.64,9.66.77,10.66-3.77a12.1,12.1,0,0,0,.25-3.52c-.27-7-4.45-11.32-9.46-15.84-4.1-3.7-12.29-7.27-17.46-6.47-5.73.88-6.62,4.91-7.66,9.59s-2.16,9.75-8.75,10.85a17.17,17.17,0,0,1-3.93,0c-4.89-.36-10-.72-11.58,9.15a36.38,36.38,0,0,0,.34,12.59,33,33,0,0,0,1.09,4.44l.09.26a38.21,38.21,0,0,0,4,8.79Zm9.41-9.34-3-4.46-3.93,3.29-4.08-6.14,3.93-3.29-3-4.46,5.67-4.75.7,1c.58.87,1,1.59,1.39,2.18s.64,1.05.86,1.33c.29-.21.76-.63,1.22-1s1.16-1,2-1.71l1-.81,4.08,6.14-.78.65c-.8.67-1.47,1.2-2,1.62a13,13,0,0,0-1.39,1.18,12,12,0,0,0,1,1.52c.4.55.89,1.24,1.47,2.11l.56.84Zm-2.47-7.82,3,4.46,2.17-1.82L221,189c-2.07-2.89-2-3.6.85-5.8l1.17-.92L221.44,180c-.35.3-.66.58-.93.83-1.34,1.2-2.08,1.86-3.08,1.71s-1.52-1-2.45-2.5l-.66-1.05-2.16,1.81,3,4.47-3.93,3.28,1.56,2.34ZM244.12,174a3.59,3.59,0,0,1-3-1.69h0a5.28,5.28,0,0,1-.5-.93,4.77,4.77,0,0,1-.72.7,4.19,4.19,0,0,1-3.27.87,3.83,3.83,0,0,1-2.61-1.65h0a4.92,4.92,0,0,1,1.31-6.74,4.65,4.65,0,0,1,.62-.34,5.17,5.17,0,0,1-.91-1.06h0a4.73,4.73,0,0,1,1.52-6.4c1.62-1.08,4-1,5.63,1.44a5.14,5.14,0,0,1,.29.51,5.17,5.17,0,0,1,1.1-1,3.82,3.82,0,0,1,5.56,1.26,5.15,5.15,0,0,1-.92,6.25h0a4.51,4.51,0,0,1-1.1.67,5.37,5.37,0,0,1,.85,1,4.52,4.52,0,0,1-1.46,6.33A4.24,4.24,0,0,1,244.12,174ZM243,171a1.51,1.51,0,0,0,2.25.3,2.29,2.29,0,0,0,.83-3.2c-1-1.51-2.09-1-2.51-.74A2.55,2.55,0,0,0,243,171Zm-7.09-1a1.61,1.61,0,0,0,1.09.66,1.84,1.84,0,0,0,1.5-.42,2.31,2.31,0,0,0,.63-2.92c-.78-1.16-1.69-1.49-2.55-.92a2.63,2.63,0,0,0-.67,3.6Zm4.05-5.15a5.89,5.89,0,0,1,1.06,1.22,3.84,3.84,0,0,1,.22.39,4.78,4.78,0,0,1,1.07-1,4.14,4.14,0,0,1,.72-.38,6,6,0,0,1-1-1.2,4.49,4.49,0,0,1-.24-.42A4.83,4.83,0,0,1,239.94,164.86Zm5.85-5.62a1.85,1.85,0,0,0-1,.33,2.38,2.38,0,0,0-.95,3.07,2.44,2.44,0,0,0,1.6,1.21,1.61,1.61,0,0,0,1.28-.4h0a3,3,0,0,0,.49-3.26A1.77,1.77,0,0,0,245.79,159.24Zm-8.88,2.62a1.86,1.86,0,0,0,1.61,1,2.37,2.37,0,0,0,1.79-1.39,2.16,2.16,0,0,0,0-2.11c-.74-1.11-1.6-1.39-2.48-.8a2.5,2.5,0,0,0-.89,3.25Z"/><path d="M184.21,185.65a13,13,0,1,1,12.95-13A13,13,0,0,1,184.21,185.65Zm0-23.63a10.68,10.68,0,1,0,10.68,10.68A10.69,10.69,0,0,0,184.21,162ZM185.69,179l-5.91-2.55.9-2.08,3.65,1.57,2.79-8.3,2.15.73Zm33.19-15.24h0c-5-.2-4.84-9.65-4.83-10.06.14-7.28,4.45-11.42,8.26-15.08,2.17-2.08,4.21-4.05,5-6.25a8.19,8.19,0,0,0-.47-6.25c-.68-1.76-1.46-3.75.73-5.58a3.24,3.24,0,0,1,4.06-.39c2.86,1.84,4.38,8.62,3,13.43-1.17,4.16-2.83,6.68-6.58,10-8.27,7.27-6.79,11.33-5.8,14a5.66,5.66,0,0,1,.54,2.69,5.13,5.13,0,0,1-1.64,3h0A5.66,5.66,0,0,1,218.88,163.72Zm11-41.89a1.41,1.41,0,0,0-.86.4c-.87.73-.8,1.16-.07,3a10.4,10.4,0,0,1,.49,7.82c-.93,2.71-3.17,4.86-5.54,7.14-3.66,3.52-7.44,7.16-7.57,13.5-.06,3.12.85,7.67,2.65,7.74.11,0,.59-.09.87-.15a2.9,2.9,0,0,0,.7-1.4,4.66,4.66,0,0,0-.42-1.59c-1.13-3.07-3-8.21,6.43-16.5,3.46-3,4.84-5.12,5.9-8.89,1.16-4.09-.21-9.71-2.07-10.91A.9.9,0,0,0,229.86,121.83ZM62.52,142.93a6.15,6.15,0,1,1,6.15-6.15A6.16,6.16,0,0,1,62.52,142.93Zm0-10a3.88,3.88,0,1,0,3.88,3.88A3.88,3.88,0,0,0,62.52,132.9ZM136.1,12.79a5.59,5.59,0,1,1,5.59-5.59A5.6,5.6,0,0,1,136.1,12.79Zm0-8.91a3.32,3.32,0,1,0,3.32,3.32A3.32,3.32,0,0,0,136.1,3.88Z"/><path d="M195.84,23.21a9,9,0,1,1,9-9A9,9,0,0,1,195.84,23.21Zm0-15.75a6.74,6.74,0,1,0,6.74,6.74A6.74,6.74,0,0,0,195.84,7.46Z"/><path class="cls-1" d="M151.78,104.81a3.68,3.68,0,0,0,2.31-.77,3.41,3.41,0,0,0,1.19-2,22,22,0,0,0,.31-4.33c0-2,0-3.39.1-4a7.6,7.6,0,0,1,.61-2.47,4.71,4.71,0,0,1,1.1-1.5,4.48,4.48,0,0,1,1.69-.85,10,10,0,0,1,2.27-.18h1v2.89h-.57a3.36,3.36,0,0,0-2.5.69c-.41.46-.61,1.48-.61,3.07a51,51,0,0,1-.21,6.07,6.82,6.82,0,0,1-1.14,3,6.61,6.61,0,0,1-2.53,1.89,5.63,5.63,0,0,1,3,2.57,12.86,12.86,0,0,1,.92,5.67c0,2.38,0,3.79,0,4.25a2.64,2.64,0,0,0,.74,1.74,3.9,3.9,0,0,0,2.34.49h.57v2.89h-1a8.55,8.55,0,0,1-2.61-.29,4.43,4.43,0,0,1-1.94-1.36,4.94,4.94,0,0,1-1-2.39,33.91,33.91,0,0,1-.25-4.75,24.17,24.17,0,0,0-.32-4.56,3.52,3.52,0,0,0-1.17-2,3.71,3.71,0,0,0-2.29-.77v-3Zm33.44,0v3a3.74,3.74,0,0,0-2.31.77,3.5,3.5,0,0,0-1.19,2,22.28,22.28,0,0,0-.32,4.31c0,2.05,0,3.39-.09,4a7.67,7.67,0,0,1-.61,2.48,4.14,4.14,0,0,1-2.81,2.33,8.8,8.8,0,0,1-2.28.2h-1V121h.57a3.4,3.4,0,0,0,2.53-.69c.42-.45.62-1.48.62-3.08,0-3.06,0-5,.16-5.8a7.21,7.21,0,0,1,1.17-3.26,5.81,5.81,0,0,1,2.51-1.89,6.2,6.2,0,0,1-3-2.67,12.94,12.94,0,0,1-.87-5.6c0-2.38,0-3.81,0-4.27a2.44,2.44,0,0,0-.73-1.71,3.91,3.91,0,0,0-2.35-.49h-.57V88.69h1a8.55,8.55,0,0,1,2.61.29,4.17,4.17,0,0,1,1.94,1.36,4.93,4.93,0,0,1,1,2.4,33.81,33.81,0,0,1,.25,4.75,24.17,24.17,0,0,0,.32,4.56,3.5,3.5,0,0,0,1.19,2,3.68,3.68,0,0,0,2.31.77Z"/><path d="M64.25,75.85a5.59,5.59,0,1,1,5.59-5.58A5.59,5.59,0,0,1,64.25,75.85Zm0-8.9a3.32,3.32,0,1,0,3.32,3.32A3.32,3.32,0,0,0,64.25,67Z"/><path d="M257.25,129.49,221.79,99.1l25-29.2,35.47,30.39ZM225,98.85l32,27.44,14.75-17.21-32-27.44Zm16.22-18.93,32,27.44,5.84-6.83-32-27.44ZM249,114.14l-.27-2.25,7.85-1-1-9.37,2.25-.24,1.26,11.59Zm-7.17-6-1.15-2,13.05-7.59,1.14,2Zm-4.11-3.62-.33-10.14L249,93.8l.11,2.27-9.42.42.26,7.91Z"/><path d="M260.9,75.57a9,9,0,1,1,9-9A9,9,0,0,1,260.9,75.57Zm0-15.75a6.74,6.74,0,1,0,6.74,6.74A6.75,6.75,0,0,0,260.9,59.82Z"/><path d="M110.51,139a6.15,6.15,0,1,1,6.15-6.15A6.16,6.16,0,0,1,110.51,139Zm0-10a3.88,3.88,0,1,0,3.88,3.88A3.88,3.88,0,0,0,110.51,129Z"/><path d="M114.17,166.09a8.92,8.92,0,1,1,8.91-8.92A8.93,8.93,0,0,1,114.17,166.09Zm0-15.57a6.65,6.65,0,1,0,6.64,6.65A6.65,6.65,0,0,0,114.17,150.52Z"/><path d="M271,144.38a7.37,7.37,0,1,1,7.37-7.37A7.38,7.38,0,0,1,271,144.38Zm0-12.47a5.11,5.11,0,1,0,5.1,5.1A5.11,5.11,0,0,0,271,131.91Z"/><path d="M243.51,145a5.89,5.89,0,1,1,5.89-5.89A5.89,5.89,0,0,1,243.51,145Zm0-9.51a3.62,3.62,0,1,0,3.62,3.62A3.63,3.63,0,0,0,243.51,135.48Z"/><path d="M208.25,291.47H126.49V270.06h81.76Zm-79.5-2.27H206V272.32H128.75Zm33.51-5H160v-6.94h2.26Zm-10.73,0h-2.27v-6.94h2.27Zm-10.73,0h-2.27v-6.94h2.27Zm57.13-2.33H171.12v-2.27h26.81Zm10.32-13.81H126.49V246.68h81.76Zm-79.5-2.27H206V249H128.75Zm33.51-5H160v-7h2.26Zm-10.73,0h-2.27v-7h2.27Zm-10.73,0h-2.27v-7h2.27Zm57.13-2.34H171.12v-2.27h26.81Zm10.32-14.09H126.49V223h81.76Zm-79.5-2.27H206V225.29H128.75Zm33.51-5H160v-6.94h2.26Zm-10.73,0h-2.27v-6.94h2.27Zm-10.73,0h-2.27v-6.94h2.27Zm57.13-2.33H171.12v-2.27h26.81Z"/><path d="M234,70c-4.75,0-6-4.61-7.12-8.72C226.13,58.67,225.4,56,224,54c-2.86-3.92-8.58-6.42-14-6.1a36.27,36.27,0,0,0-5,.82c-5.15,1.08-11.55,2.41-13.09-3.27-1-3.57-.12-7.14,2.55-10.91a32.78,32.78,0,0,1,5.92-6.09l.18-.16A29,29,0,0,1,203.87,26a32,32,0,0,1,10.3-4.28c10-2.06,11.73,3.78,12.91,7.65a12.91,12.91,0,0,0,1,2.58c2,3.38,4.69,3.17,8.89,2.53s8.7-1.31,11.79,4.08c2.48,4.33,2.18,12.37.34,17.17-2.09,5.46-4.47,10.57-10.53,13.18a11.69,11.69,0,0,1-3.3,1A8.41,8.41,0,0,1,234,70ZM210.89,45.61c5.79,0,11.79,2.81,14.89,7.06,1.7,2.33,2.52,5.33,3.24,8,1.35,5,2.22,7.53,5.87,7a9.62,9.62,0,0,0,2.74-.84c5.26-2.27,7.33-6.73,9.31-11.91,1.62-4.23,1.94-11.52-.18-15.23-2.32-4-5.64-3.55-9.49-3s-8.29,1.26-11.18-3.62A13.93,13.93,0,0,1,224.91,30c-1.16-3.8-2.35-7.73-10.29-6.09a30,30,0,0,0-9.55,4A27.61,27.61,0,0,0,202,30l-.19.16a31.22,31.22,0,0,0-5.54,5.68c-2.26,3.19-3,6.14-2.21,9,.91,3.36,4.72,2.83,10.44,1.64a40.42,40.42,0,0,1,5.36-.87C210.19,45.62,210.54,45.61,210.89,45.61ZM233.77,55.7a2.42,2.42,0,0,1-.38,0,4.2,4.2,0,0,1-3.4-2.3,3.13,3.13,0,0,1,.34-3.2h0a4.57,4.57,0,0,1,.38-.47,4.09,4.09,0,0,1-.51-.26,3.62,3.62,0,0,1-1.73-2.39A3.36,3.36,0,0,1,229,44.4h0a4.26,4.26,0,0,1,5.86-1l.26.2a5.12,5.12,0,0,1,.47-.79h0a3.86,3.86,0,0,1,3.56-1.55,3.93,3.93,0,0,1,3.26,2.14,3.56,3.56,0,0,1-.55,3.67,1.33,1.33,0,0,1-.14.19,3.83,3.83,0,0,1,.87.47,3.34,3.34,0,0,1,.74,4.94A4.46,4.46,0,0,1,238,53.84h0a4.15,4.15,0,0,1-.68-.48,4.34,4.34,0,0,1-.43.73A3.7,3.7,0,0,1,233.77,55.7Zm.06-5.13a2,2,0,0,0-1.65.92h0a.89.89,0,0,0-.13.95,2,2,0,0,0,1.55,1,1.46,1.46,0,0,0,1.41-.66c.74-1,.24-1.63-.12-1.88A1.9,1.9,0,0,0,233.83,50.57Zm5.24,1.29a2.26,2.26,0,0,0,2.41-.54c.52-.73.45-1.31-.2-1.78a1.76,1.76,0,0,0-2.38.14,1.84,1.84,0,0,0-.42,1.44,1.17,1.17,0,0,0,.59.74Zm-3.73-3.29a4.24,4.24,0,0,1,.86.47,3.92,3.92,0,0,1,.32.25,5.69,5.69,0,0,1,.53-.93l.08-.1a4.47,4.47,0,0,1-.89-.48l-.3-.24a4.86,4.86,0,0,1-.54,1Zm-4.49-2.86h0a1.13,1.13,0,0,0-.16.89,1.35,1.35,0,0,0,.68.91,1.71,1.71,0,0,0,2.18-.33c.42-.6.77-1.43,0-2A2,2,0,0,0,230.85,45.71Zm6.59-1.63c-.56.79-.53,1.39.11,1.85a1.85,1.85,0,0,0,2.46-.21,1.48,1.48,0,0,0,.34-1.41,1.74,1.74,0,0,0-1.41-.83,1.61,1.61,0,0,0-1.5.6Zm-25.92-.62-5.7-3.16,2.57-3.62-3.71-2,3.76-5.3,3.7,2.06,2.56-3.62,5.7,3.16-.73,1c-.5.71-.92,1.27-1.27,1.73s-.49.64-.66.88l1,.52c.51.26,1.15.58,1.91,1l1.1.62L218,42l-.89-.5c-.76-.42-1.36-.78-1.86-1.08a12.84,12.84,0,0,0-1.17-.66,12.07,12.07,0,0,0-.76,1.1c-.32.47-.7,1.06-1.2,1.76Zm-2.38-3.92,1.7,1,.57-.87c1.69-2.57,2.35-2.72,5-1.13l.91.54,1.1-1.55-.72-.37c-1.38-.71-2.14-1.09-2.34-2s.3-1.58,1.23-2.8l.48-.63-1.69-.94-2.56,3.61-3.71-2.05L208,33.87l3.71,2.06Z"/><path d="M242.39,200.09a5.89,5.89,0,1,1,5.89-5.89A5.89,5.89,0,0,1,242.39,200.09Zm0-9.51A3.62,3.62,0,1,0,246,194.2,3.63,3.63,0,0,0,242.39,190.58Z"/><path d="M86.35,170.06a6.16,6.16,0,0,1-6.15-6.15,5.83,5.83,0,0,1,.15-1.33l-6.28-2.68a6.15,6.15,0,1,1-.22-9.21l6.51-2.86a6.37,6.37,0,0,1-.16-1.39,6.18,6.18,0,1,1,1.08,3.46l-6,2.62a6.07,6.07,0,0,1,.71,2.87,6.25,6.25,0,0,1-.58,2.63l5.79,2.47a6.15,6.15,0,1,1,5.11,9.57Zm0-10a3.88,3.88,0,1,0,3.89,3.88A3.88,3.88,0,0,0,86.35,160Zm-16.47-8.52a3.89,3.89,0,1,0,3.89,3.88A3.88,3.88,0,0,0,69.88,151.51Zm16.47-8.95a3.88,3.88,0,1,0,3.89,3.88A3.88,3.88,0,0,0,86.35,142.56Z"/><path d="M114.66,108.15a7.37,7.37,0,1,1,7.37-7.37A7.37,7.37,0,0,1,114.66,108.15Zm0-12.47a5.1,5.1,0,1,0,5.1,5.1A5.11,5.11,0,0,0,114.66,95.68Z"/><path d="M167.37,316.15c-22.89,0-40.82-9.08-40.82-20.67v-1.13h81.64v1.13C208.19,307.07,190.26,316.15,167.37,316.15Zm-38.48-19.53c1.23,9.61,18,17.26,38.48,17.26s37.25-7.65,38.48-17.26Z"/><path d="M79,46.25a5.59,5.59,0,1,1,5.59-5.59A5.6,5.6,0,0,1,79,46.25Zm0-8.91a3.32,3.32,0,1,0,3.32,3.32A3.32,3.32,0,0,0,79,37.34Z"/><path class="cls-1" d="M199.44,59.77a2,2,0,0,0,1.23.39,1.88,1.88,0,0,0,1.12-.49,11,11,0,0,0,1.47-1.75c.64-.87,1.07-1.44,1.29-1.7a4.44,4.44,0,0,1,1-.87,2.52,2.52,0,0,1,.93-.3,2.44,2.44,0,0,1,1,.16,5.57,5.57,0,0,1,1,.62l.44.32-.9,1.24-.24-.18a1.76,1.76,0,0,0-1.28-.48c-.32.07-.72.44-1.21,1.12a27.69,27.69,0,0,1-2,2.54,3.6,3.6,0,0,1-1.42.94,3.39,3.39,0,0,1-1.66,0,3,3,0,0,1,.47,2,6.94,6.94,0,0,1-1.36,2.71c-.74,1-1.17,1.62-1.3,1.82a1.39,1.39,0,0,0-.22,1,2.07,2.07,0,0,0,.85.93L199,70l-.89,1.23-.44-.31a4.75,4.75,0,0,1-1-.93,2.35,2.35,0,0,1-.4-1.19,2.47,2.47,0,0,1,.31-1.33,17.93,17.93,0,0,1,1.36-2.11,12.27,12.27,0,0,0,1.27-2,1.87,1.87,0,0,0,.12-1.22,2,2,0,0,0-.74-1l.92-1.28ZM213.75,70.1l-.93,1.29a1.8,1.8,0,0,0-2.35.09A12.2,12.2,0,0,0,209,73.23c-.63.87-1.06,1.44-1.29,1.7a4,4,0,0,1-1,.87,2.32,2.32,0,0,1-.94.29,2.44,2.44,0,0,1-1-.16,4.79,4.79,0,0,1-1-.62l-.44-.32.89-1.23.25.17a1.76,1.76,0,0,0,1.29.49c.32-.07.72-.44,1.22-1.13q1.41-2,1.86-2.43a3.85,3.85,0,0,1,1.5-1,3.1,3.1,0,0,1,1.66,0,3.32,3.32,0,0,1-.46-2.07,6.83,6.83,0,0,1,1.36-2.67c.74-1,1.17-1.63,1.3-1.84a1.26,1.26,0,0,0,.22-.95,2,2,0,0,0-.85-.94l-.25-.17.9-1.24.44.32a4.4,4.4,0,0,1,1,.93,2.21,2.21,0,0,1,.41,1.18,2.56,2.56,0,0,1-.31,1.33,17.53,17.53,0,0,1-1.37,2.11,13.45,13.45,0,0,0-1.27,2,1.85,1.85,0,0,0-.1,1.22,1.9,1.9,0,0,0,.75,1Z"/><path d="M158,72.26l-.19,0a1.1,1.1,0,0,1-.77-.52L145.34,52.77l-.09-.19h0v0h0a1.21,1.21,0,0,1-.07-.56l5.11-41.3A12.22,12.22,0,0,1,163.88.09l8.76,1.09a12.2,12.2,0,0,1,10.6,13.59l-1.23,10a1.09,1.09,0,0,1,0,.51.92.92,0,0,1-.15.4l-3.73,30.18s0,0,0,.07l0,.21a1.14,1.14,0,0,1-.42.74L158.75,72A1.14,1.14,0,0,1,158,72.26Zm-3-8.12,3.28,5.3,4.92-3.94Zm-1.59-2.57,11.8,2a1.19,1.19,0,0,1,.32.1l9.68-7.75c-7.69-4.66-13.44.25-13.85.61a1,1,0,0,1-.2.15,1.44,1.44,0,0,1-.41.15,1.08,1.08,0,0,1-.4,0,1,1,0,0,1-.42-.19,1.23,1.23,0,0,1-.33-.35l0-.07c-.18-.35-3.27-6.08-11.62-3.42Zm15.24-9.92a14.62,14.62,0,0,1,7.43,2.12L179.57,26l-13.17-2.2-4.28,29.57A14,14,0,0,1,168.7,51.65Zm-16.56-1.87a10.76,10.76,0,0,1,7.75,3.11l4.27-29.5-12.89-2.15-3.62,29.24A15.5,15.5,0,0,1,152.14,49.78Zm14.58-28.26,13.13,2.2.43-3.51L167.22,18ZM151.54,19l12.94,2.17.51-3.49-13-2.18Zm14.92-3.38L180.56,18l.43-3.47a9.93,9.93,0,0,0-8.63-11.06L163.6,2.34A9.93,9.93,0,0,0,152.54,11l-.28,2.26,14.19,2.37Z"/><path d="M181.58,215.78l-.22,0c-1-.18-1.39-1.22-1.67-4.14a.81.81,0,0,1,0-.22,4,4,0,0,0-2.49-3.77h0c-.2-.11-4.89-2.64-5.51-6.67a5.43,5.43,0,0,1-.06-.55.88.88,0,0,1-.21-.12c-.08-.05-3-2.15-7.48-5.68l-.16-.13a252.26,252.26,0,0,1-29-26.57c-.9-1.16-2.16-3.17-1.16-4.38s2.7-.77,6.42,1.12a262.15,262.15,0,0,1,30.48,21.87l.12.09c2.33,2,4.65,4,6.88,6.14a6.87,6.87,0,0,1,3.15-.37c2.6.31,4.91,2.14,6.85,5.45a.53.53,0,0,1,.08.17c.13.36,3.09,8.88-4.87,17.15A1.33,1.33,0,0,1,181.58,215.78Zm.16-4.27c.06.6.12,1.06.18,1.42,5.82-6.71,4-13.36,3.73-14.16-1.59-2.67-3.36-4.13-5.27-4.36-2.69-.32-4.83,1.87-4.86,1.89-1.43,1.46-2.05,2.92-1.83,4.33.45,2.94,4.23,5.05,4.44,5.17A6,6,0,0,1,181.74,211.51ZM165.6,193.32c3,2.36,5.26,4,6.32,4.81a8.79,8.79,0,0,1,2.13-3.26,9,9,0,0,1,1.46-1.16c-1.89-1.76-3.84-3.49-5.8-5.16A7.81,7.81,0,0,0,165.6,193.32ZM135.36,165a7.9,7.9,0,0,0,.94,1.59A246.86,246.86,0,0,0,163.9,192a9.79,9.79,0,0,1,4.13-4.83,263.84,263.84,0,0,0-29-20.7A14.14,14.14,0,0,0,135.36,165Z"/><path d="M183.68,71.78a5.59,5.59,0,1,1,5.59-5.58A5.58,5.58,0,0,1,183.68,71.78Zm0-8.9A3.32,3.32,0,1,0,187,66.2,3.32,3.32,0,0,0,183.68,62.88ZM136,70a5.59,5.59,0,1,1,5.59-5.59A5.6,5.6,0,0,1,136,70ZM136,61a3.32,3.32,0,1,0,3.32,3.32A3.32,3.32,0,0,0,136,61Z"/><path d="M158.55,168.05a3.14,3.14,0,1,1,3.14-3.14A3.14,3.14,0,0,1,158.55,168.05Zm0-5a1.86,1.86,0,1,0,1.87,1.86A1.86,1.86,0,0,0,158.55,163.05Z"/></g></g></svg>